<svg xmlns="http://www.w3.org/2000/svg" viewBox="0 0 500 500"><g id="freepik--background-complete--inject-13"><path d="M475.1,133.9a10.3,10.3,0,0,0-7.9,1.78,18.1,18.1,0,0,0-5.4,6.25c-2.64,4.68-3.34,10.82-3.19,16.19,5.94-.55,10.79-5.49,13.09-8.15,3.64-4.2,7.66-14,3.4-16.07" style="fill:#e0e0e0"></path><path d="M449.22,162.2a8.82,8.82,0,0,0,2.6-8.47,11.73,11.73,0,0,0-5.42-7.25,4.93,4.93,0,0,0-4.08-.84A3.75,3.75,0,0,0,440,148.7a7.5,7.5,0,0,0,.66,3.92c1.72,4.26,4.17,8.07,8.52,9.58" style="fill:#e0e0e0"></path><path d="M444.58,179.43a4.62,4.62,0,0,1,.35-1.08L446,175.5a43.3,43.3,0,0,0,2.68-9.66,19.87,19.87,0,0,0-1.07-9.82,24.27,24.27,0,0,0-2-3.63,4,4,0,0,1,.76.83,12.71,12.71,0,0,1,1.57,2.66,19.12,19.12,0,0,1,1.25,10,38.36,38.36,0,0,1-2.85,9.72c-.51,1.2-.94,2.15-1.26,2.8A5,5,0,0,1,444.58,179.43Z" style="fill:#ebebeb"></path><path d="M471.37,141.1s-.07.15-.25.41l-.8,1.12-3,4.07c-2.55,3.43-6.06,8.19-9.86,13.49s-7.17,10.16-9.6,13.68L445,178l-.8,1.12a1.65,1.65,0,0,1-.31.37s.06-.15.22-.43l.72-1.17c.63-1,1.57-2.47,2.75-4.26,2.35-3.57,5.68-8.46,9.48-13.77s7.36-10,10-13.41c1.31-1.69,2.39-3,3.15-4l.88-1.06A2.4,2.4,0,0,1,471.37,141.1Z" style="fill:#ebebeb"></path><path d="M453.54,168.63a20.66,20.66,0,0,1,18.33-4.43c1.62.41,3.43,1.3,3.66,3s-1.26,3-2.72,3.83A17.65,17.65,0,0,1,453.34,169" style="fill:#e0e0e0"></path><path d="M468.05,167.41c0,.11-1.52-.19-4-.13a23.89,23.89,0,0,0-4.26.5,27.08,27.08,0,0,0-5,1.62,26.77,26.77,0,0,0-4.53,2.66,23.53,23.53,0,0,0-3.21,2.86c-1.67,1.79-2.45,3.12-2.54,3.06A4.31,4.31,0,0,1,445,177a9.29,9.29,0,0,1,.71-1.05,14.66,14.66,0,0,1,1.05-1.31,21.83,21.83,0,0,1,3.19-3,23.29,23.29,0,0,1,9.72-4.37,21.63,21.63,0,0,1,4.36-.4,14.2,14.2,0,0,1,1.68.09,8.81,8.81,0,0,1,1.25.17A4.33,4.33,0,0,1,468.05,167.41Z" style="fill:#ebebeb"></path><path d="M49.28,73.18a10.35,10.35,0,0,0-1.77,7.9,18.28,18.28,0,0,0,3.35,7.55c3.1,4.38,8.36,7.64,13.27,9.8,2.05-5.6-.34-12.09-1.77-15.31C60.12,78,53,70.2,49.28,73.18" style="fill:#e0e0e0"></path><path d="M63.8,108.67a8.84,8.84,0,0,0-6.54-6,11.71,11.71,0,0,0-8.87,1.81,4.92,4.92,0,0,0-2.51,3.32,3.78,3.78,0,0,0,1.8,3.38,7.66,7.66,0,0,0,3.82,1.08c4.59.26,9.08-.33,12.3-3.61" style="fill:#e0e0e0"></path><path d="M77.4,120.23a5,5,0,0,1-.82-.78l-2.12-2.21a43.23,43.23,0,0,0-7.58-6.55,19.86,19.86,0,0,0-9.34-3.23,23.22,23.22,0,0,0-4.13.25,3.81,3.81,0,0,1,1.07-.34,13,13,0,0,1,3.08-.27,19,19,0,0,1,9.6,3.16A37.93,37.93,0,0,1,74.73,117c.87,1,1.54,1.77,2,2.33A5.19,5.19,0,0,1,77.4,120.23Z" style="fill:#ebebeb"></path><path d="M54.2,79.62s.11.13.26.4.41.73.67,1.21c.61,1.12,1.41,2.63,2.39,4.46,2,3.78,4.82,9,8,14.68s6.12,10.83,8.26,14.53l2.54,4.39c.26.48.48.87.67,1.2s.22.43.2.44a2,2,0,0,1-.29-.38l-.76-1.16c-.64-1-1.56-2.47-2.67-4.3-2.23-3.66-5.22-8.76-8.4-14.46S59.13,89.68,57.2,85.86c-1-1.91-1.74-3.46-2.25-4.54l-.58-1.25C54.24,79.78,54.18,79.63,54.2,79.62Z" style="fill:#ebebeb"></path><path d="M71.47,107.51A20.64,20.64,0,0,1,75.3,89.05c1.06-1.29,2.64-2.54,4.23-2s2.19,2.43,2.3,4.09a17.65,17.65,0,0,1-10.08,16.78" style="fill:#e0e0e0"></path><path d="M76.57,93.87c.09.06-.82,1.3-1.82,3.54a23.83,23.83,0,0,0-1.37,4.07,26.73,26.73,0,0,0-.67,5.21,27.59,27.59,0,0,0,.46,5.23A24.09,24.09,0,0,0,74.38,116c.91,2.28,1.78,3.56,1.69,3.61a4.09,4.09,0,0,1-.64-.87,7.63,7.63,0,0,1-.65-1.09,16.2,16.2,0,0,1-.74-1.5A23,23,0,0,1,72.7,112a24.89,24.89,0,0,1-.51-5.34,25.32,25.32,0,0,1,.72-5.31,21.94,21.94,0,0,1,1.5-4.11,15,15,0,0,1,.8-1.48,8.73,8.73,0,0,1,.69-1.07A4.12,4.12,0,0,1,76.57,93.87Z" style="fill:#ebebeb"></path><path d="M160.71,477.77a10.36,10.36,0,0,0,8.08-.6,18.38,18.38,0,0,0,6.26-5.38c3.29-4.24,4.89-10.21,5.54-15.55-6-.33-11.48,3.84-14.15,6.13-4.22,3.62-9.64,12.73-5.73,15.4" style="fill:#e0e0e0"></path><path d="M190.48,453.59a8.83,8.83,0,0,0-3.82,8,11.68,11.68,0,0,0,4.29,8,4.94,4.94,0,0,0,3.9,1.43,3.78,3.78,0,0,0,2.72-2.69,7.54,7.54,0,0,0-.08-4c-1.07-4.47-2.94-8.6-7-10.74" style="fill:#e0e0e0"></path><path d="M197.61,437.24a4.52,4.52,0,0,1-.51,1l-1.5,2.66a43.08,43.08,0,0,0-4.07,9.16,19.84,19.84,0,0,0-.39,9.87,24.11,24.11,0,0,0,1.43,3.88,3.89,3.89,0,0,1-.63-.93,12.24,12.24,0,0,1-1.16-2.86,19,19,0,0,1,.25-10.1,38,38,0,0,1,4.25-9.2c.68-1.11,1.25-2,1.65-2.59A4.64,4.64,0,0,1,197.61,437.24Z" style="fill:#ebebeb"></path><path d="M165.45,471.2s.1-.14.31-.37l1-1,3.59-3.58c3-3,7.2-7.21,11.74-11.89s8.59-9,11.51-12.11l3.47-3.7,1-1c.22-.22.34-.33.36-.32a2,2,0,0,1-.29.39l-.88,1.06c-.78.91-1.92,2.21-3.35,3.81C191,445.69,187,450,182.42,454.73s-8.76,8.84-11.86,11.79c-1.55,1.48-2.81,2.66-3.7,3.46l-1,.92A1.82,1.82,0,0,1,165.45,471.2Z" style="fill:#ebebeb"></path><path d="M187.16,446.59a20.64,20.64,0,0,1-18.79,1.68c-1.54-.64-3.2-1.79-3.19-3.45s1.7-2.8,3.26-3.39a17.63,17.63,0,0,1,19,4.79" style="fill:#e0e0e0"></path><path d="M172.62,445.66c0-.1,1.48.41,3.92.72a24.26,24.26,0,0,0,4.29.13,26.07,26.07,0,0,0,5.18-.87,26.45,26.45,0,0,0,4.87-2,23.17,23.17,0,0,0,3.6-2.35c1.92-1.53,2.89-2.72,3-2.65a5.58,5.58,0,0,1-.65.86,9.62,9.62,0,0,1-.86.93,14.2,14.2,0,0,1-1.23,1.15,22.4,22.4,0,0,1-3.6,2.49,25.55,25.55,0,0,1-5,2,25,25,0,0,1-5.3.85,20.9,20.9,0,0,1-4.36-.25,14.12,14.12,0,0,1-1.65-.33,8.81,8.81,0,0,1-1.22-.35A4.7,4.7,0,0,1,172.62,445.66Z" style="fill:#ebebeb"></path><circle cx="363.45" cy="347.51" r="9.99" transform="matrix(0.56, -0.83, 0.83, 0.56, -128.2, 453.08)" style="fill:#ebebeb"></circle><path d="M401.42,327.47a10,10,0,1,1-10-10A10,10,0,0,1,401.42,327.47Z" style="fill:#ebebeb"></path><path d="M401.47,369.84c0,6-4.46,10.88-10,10.88s-10-4.85-10-10.86S386,359,391.46,359,401.47,363.83,401.47,369.84Z" style="fill:#ebebeb"></path><path d="M388.53,368.57c-.43.63-7.07-3.15-14.85-8.43s-13.72-10.08-13.3-10.71,7.08,3.15,14.85,8.43S389,367.94,388.53,368.57Z" style="fill:#ebebeb"></path><path d="M389.33,326.79c.46.6-4.67,5.36-11.46,10.62s-12.69,9-13.15,8.45,4.66-5.36,11.46-10.62S388.86,326.19,389.33,326.79Z" style="fill:#ebebeb"></path><path d="M333.81,231a34.12,34.12,0,0,1,.26,6,34,34,0,0,1-.26,6,35.22,35.22,0,0,1-.26-6A35.32,35.32,0,0,1,333.81,231Z" style="fill:#e0e0e0"></path><path d="M333.81,207a34.12,34.12,0,0,1,.26,6,34,34,0,0,1-.26,6,35.22,35.22,0,0,1-.26-6A35.32,35.32,0,0,1,333.81,207Z" style="fill:#e0e0e0"></path><path d="M333.81,183a34.12,34.12,0,0,1,.26,6,34,34,0,0,1-.26,6,35.22,35.22,0,0,1-.26-6A35.32,35.32,0,0,1,333.81,183Z" style="fill:#e0e0e0"></path><path d="M333.81,159a34.12,34.12,0,0,1,.26,6,34,34,0,0,1-.26,6,35.22,35.22,0,0,1-.26-6A35.32,35.32,0,0,1,333.81,159Z" style="fill:#e0e0e0"></path><path d="M333.81,135a34.12,34.12,0,0,1,.26,6,34,34,0,0,1-.26,6,35.22,35.22,0,0,1-.26-6A35.32,35.32,0,0,1,333.81,135Z" style="fill:#e0e0e0"></path><path d="M327,117.85a35.32,35.32,0,0,1,6-.26h1.09v.25a28.6,28.6,0,0,1-.26,5.17,28.6,28.6,0,0,1-.26-5.17l.26.26H333A34.12,34.12,0,0,1,327,117.85Z" style="fill:#e0e0e0"></path><path d="M303,117.85a69.36,69.36,0,0,1,12,0,69.36,69.36,0,0,1-12,0Z" style="fill:#e0e0e0"></path><path d="M292.55,104.29a35.32,35.32,0,0,1,.26,6,35.32,35.32,0,0,1-.26,6,34.12,34.12,0,0,1-.26-6A34.12,34.12,0,0,1,292.55,104.29Z" style="fill:#e0e0e0"></path><path d="M292.55,85a13,13,0,0,1,.26,3.63,13.09,13.09,0,0,1-.26,3.63,12.65,12.65,0,0,1-.26-3.63A12.59,12.59,0,0,1,292.55,85Z" style="fill:#e0e0e0"></path><path d="M147.8,357.25a16.8,16.8,0,0,1,6,0,17.44,17.44,0,0,1-6,0Z" style="fill:#e0e0e0"></path><path d="M121.64,357.25a39.64,39.64,0,0,1,6.54-.27,39.74,39.74,0,0,1,6.54.27,41.9,41.9,0,0,1-6.54.26A41.79,41.79,0,0,1,121.64,357.25Z" style="fill:#e0e0e0"></path><path d="M95.47,357.25A39.74,39.74,0,0,1,102,357a39.74,39.74,0,0,1,6.54.27,41.9,41.9,0,0,1-6.54.26A41.9,41.9,0,0,1,95.47,357.25Z" style="fill:#e0e0e0"></path><path d="M76.39,351.25a34,34,0,0,1,.26,6l-.26-.26H77.6l1.13,0,1.9.05a5.67,5.67,0,0,1,1.76.19,6.34,6.34,0,0,1-1.76.18l-1.9.06H76.39c.23.23-.32-.32-.26-.27A35.15,35.15,0,0,1,76.39,351.25Z" style="fill:#e0e0e0"></path><path d="M76.39,328a65.16,65.16,0,0,1,0,11.63,65.16,65.16,0,0,1,0-11.63Z" style="fill:#e0e0e0"></path><path d="M76.39,304.72a65.16,65.16,0,0,1,0,11.63,65.16,65.16,0,0,1,0-11.63Z" style="fill:#e0e0e0"></path><path d="M76.39,287.08a17.44,17.44,0,0,1,0,6,17.44,17.44,0,0,1,0-6Z" style="fill:#e0e0e0"></path><path d="M121.87,280.16a10.39,10.39,0,0,0-3.35-11.23,10.13,10.13,0,0,0-5.8-2.07,8.38,8.38,0,0,1-7.38-5,17.63,17.63,0,0,0-31.2-2.6c-1.12,1.77-2,3.83-3.85,4.86-2.33,1.3-5.2.42-7.85.25-7.89-.5-15.36,7.92-14.95,15.81Z" style="fill:#f5f5f5"></path><path d="M325.55,85a10.38,10.38,0,0,0-3.34-11.23,10.17,10.17,0,0,0-5.81-2.08,8.39,8.39,0,0,1-7.38-5,17.63,17.63,0,0,0-31.2-2.59c-1.12,1.76-2,3.83-3.85,4.85-2.32,1.3-5.19.42-7.85.26-7.89-.5-15.36,7.92-15,15.81Z" style="fill:#f5f5f5"></path></g><g id="freepik--Connectivity--inject-13"><circle cx="394.52" cy="217.41" r="66.8" transform="translate(-38.18 342.65) rotate(-45)" style="fill:#e0e0e0"></circle><path d="M312,394.11c-1.58,40.17-31.17,73.42-71.37,74.2a72.8,72.8,0,0,1-74.2-71.37c-.78-40.2,31.28-77.29,71.37-74.2C280.54,326,313.43,357.45,312,394.11Z" style="fill:#e0e0e0"></path><circle cx="127.31" cy="153.85" r="68.11" transform="translate(-71.5 135.08) rotate(-45)" style="fill:#e0e0e0"></circle><path d="M385.9,233.16c1.06,1-24.75,30.68-57.64,66.34s-60.42,63.79-61.48,62.81,24.75-30.67,57.65-66.34S384.84,232.18,385.9,233.16Z" style="fill:#e0e0e0"></path><path d="M372.21,184.72c-.31,1.41-45.79-7.3-101.58-19.44s-100.78-23.12-100.48-24.52,45.78,7.29,101.59,19.44S372.52,183.32,372.21,184.72Z" style="fill:#e0e0e0"></path><path d="M206.4,349.26c-.6.37-7.67-9.75-18.38-26.57S163,282.32,148,255.88s-28-50.77-37-68.57S96.88,158.27,97.5,158s6.9,10.29,16.7,27.63,23.33,41.28,38.28,67.73l38.69,67.48C201.06,338.07,207,348.87,206.4,349.26Z" style="fill:#e0e0e0"></path></g><g id="freepik--character-3--inject-13"><path d="M419.6,125.33c.34,5.71.74,7.44,2.85,12,1.26,2.7,3,5.2,3.72,8.09s.31,5.66.81,8.44c.83,4.54,3.84,8.32,6.11,12.34s3.78,9.12,1.54,13.15l-23.14-2.73-1.63-28.72Z" style="fill:#263238"></path><path d="M373.6,115.59c-3,6.36,1.17,12.71-1.83,19.06a49.76,49.76,0,0,0-3.77,9.72c-.71,3-.86,6.27-2.1,9.15-2,4.59-6.49,7.69-8.58,12.23-3.09,6.73.2,15.16,6.1,19.63s13.76,5.57,21.15,5.06c4.47-.32,9-1.21,12.87-3.51s6.94-6.2,7.43-10.66" style="fill:#263238"></path><path d="M407.91,104.28c14.88,6.6,17.84,31.05,17.92,34.35.09,3.92,2.18,4.74,4.79,6.79s5.14,4.54,5.86,7.73c.57,2.51,0,5.28,1.17,7.57,1.43,2.73,4.83,3.74,7.46,5.43,5,3.19,7.44,9.19,7.71,15s-1.31,11.49-2.89,17.07c-.63,2.22-1.4,4.64-3.41,5.85-1.55.93-3.49.92-5.31.88l-28.28-.63c-7.21-.16-14.61-.36-21.27-3a26.64,26.64,0,0,1-13.07-11,21.6,21.6,0,0,1-2.36-16.51c1.18-4.24,3.75-8.07,4.5-12.4.92-5.37-3.58-7.66-5.21-12.87s-3-17.68-.75-22.67" style="fill:#263238"></path><path d="M424.92,239.1l-4.65-14.9L419.6,247s6,15.55,10.62,27.43a69.74,69.74,0,0,1-70.56.49l7.16-25.73L363.41,220,354,233.55l-20.15-19.48s14.75-27.25,16.58-29.74c11.67-15.86,31.81-15.48,31.81-15.48l28.51,1.58s16-.89,26.56,11.79c0,0,10.29,15.71,18.74,54.47Z" style="fill:#B0BEC5"></path><path d="M439.18,186.48a2.77,2.77,0,0,1-.41.07c-.28,0-.69.06-1.22.16A20,20,0,0,0,433,188a20.55,20.55,0,0,0-6.21,4.08,19.18,19.18,0,0,0-3,3.59,14,14,0,0,0-2.07,4.76,6.05,6.05,0,0,0,.09,2.74,4.39,4.39,0,0,0,1.64,2.28,3,3,0,0,0,2.77.44,3.41,3.41,0,0,0,1.92-2.24,4.26,4.26,0,0,0-.22-3.11,6.78,6.78,0,0,0-2.17-2.51,13.71,13.71,0,0,0-6.6-2.46,20.34,20.34,0,0,0-7.48.66,27.64,27.64,0,0,0-7.28,3,20.62,20.62,0,0,0-6,5.49,7.26,7.26,0,0,0-1.44,3.79,3.48,3.48,0,0,0,.51,1.92,4.64,4.64,0,0,0,1.46,1.43l-.05,0a2.78,2.78,0,0,0,2,.09,3,3,0,0,0,1.45-1.53,10.68,10.68,0,0,0,.84-4.56,12.89,12.89,0,0,0-.74-4.55,10.19,10.19,0,0,0-2.54-3.76,13.66,13.66,0,0,0-8-3.62,21.86,21.86,0,0,0-8.61,1c-2.71.84-5.42,1.94-7.16,4a4.61,4.61,0,0,0,.46,6.82,3.14,3.14,0,0,0,1.64.71,2.57,2.57,0,0,0,1.68-.4,3.88,3.88,0,0,0,1.6-3,9,9,0,0,0-.39-3.48c-.18-.55-.42-1.08-.62-1.62-.11-.26-.2-.54-.33-.79l-.4-.75a20.69,20.69,0,0,0-3.87-5.16,24.09,24.09,0,0,0-9.5-5.68,23,23,0,0,0-8.32-1.1,21.22,21.22,0,0,0-5.24,1l-1.31.47-.46.14.44-.19,1.29-.52a20.46,20.46,0,0,1,5.26-1.08,23.18,23.18,0,0,1,8.43,1,24.32,24.32,0,0,1,9.66,5.7,20.39,20.39,0,0,1,4,5.23l.42.76c.13.26.22.54.33.81.22.55.46,1.09.65,1.66a9.44,9.44,0,0,1,.42,3.64,4.3,4.3,0,0,1-1.79,3.36,3.08,3.08,0,0,1-2,.47,3.57,3.57,0,0,1-1.87-.8,5.35,5.35,0,0,1-1.93-3.57,4.29,4.29,0,0,1,.3-2.09,6.84,6.84,0,0,1,1.08-1.82c1.85-2.21,4.64-3.33,7.38-4.18a22,22,0,0,1,8.81-1,14.13,14.13,0,0,1,8.34,3.75,10.78,10.78,0,0,1,2.66,3.94,13.4,13.4,0,0,1,.78,4.74,11.22,11.22,0,0,1-.89,4.79,3.49,3.49,0,0,1-1.73,1.78,3.31,3.31,0,0,1-2.42-.08h0l0,0a5,5,0,0,1-1.62-1.59,3.88,3.88,0,0,1-.58-2.19,7.74,7.74,0,0,1,1.53-4.08,21.16,21.16,0,0,1,6.18-5.62,28.11,28.11,0,0,1,7.43-3.08,20.8,20.8,0,0,1,7.65-.66,14.15,14.15,0,0,1,6.81,2.56,7.22,7.22,0,0,1,2.29,2.69,4.62,4.62,0,0,1,.23,3.42,3.79,3.79,0,0,1-2.17,2.48,3.33,3.33,0,0,1-3.13-.5,4.76,4.76,0,0,1-1.77-2.48,6.25,6.25,0,0,1-.08-2.91,14.19,14.19,0,0,1,2.14-4.87,19.7,19.7,0,0,1,3.05-3.62,20.68,20.68,0,0,1,6.33-4.06,18.7,18.7,0,0,1,4.58-1.22A14.15,14.15,0,0,1,439.18,186.48Z" style="fill:#fafafa"></path><path d="M451.26,219.06a24,24,0,0,0-2.59,1.25,13.27,13.27,0,0,0-5.11,5.73,12,12,0,0,0-.82,2.43,5,5,0,0,0,0,2.69,2,2,0,0,0,.73,1.1,1.37,1.37,0,0,0,1.26.14,2.85,2.85,0,0,0,1.52-2.38,5.48,5.48,0,0,0-3-5.41,7,7,0,0,0-6.79.64,9.77,9.77,0,0,0-3.85,5.91,4.42,4.42,0,0,0,.27,3.24,2.06,2.06,0,0,0,2.57,1,2.63,2.63,0,0,0,1.46-2.38,5.16,5.16,0,0,0-.87-2.73,8,8,0,0,0-4.05-3.27,7.56,7.56,0,0,0-4.32-.26,8.27,8.27,0,0,0-3,1.4,10.45,10.45,0,0,0-2,2,.88.88,0,0,1,.09-.17,3.09,3.09,0,0,1,.3-.47,7.08,7.08,0,0,1,1.49-1.56,8.1,8.1,0,0,1,3.06-1.52,7.65,7.65,0,0,1,4.51.2,8.3,8.3,0,0,1,4.3,3.38,5.54,5.54,0,0,1,.95,3,3.06,3.06,0,0,1-1.72,2.81,2.24,2.24,0,0,1-1.81,0,2.93,2.93,0,0,1-1.37-1.21,4.87,4.87,0,0,1-.35-3.61,10.24,10.24,0,0,1,4.06-6.23,7.45,7.45,0,0,1,7.31-.66,6,6,0,0,1,3.29,5.92,3.31,3.31,0,0,1-1.84,2.75,1.83,1.83,0,0,1-1.68-.21,2.48,2.48,0,0,1-.88-1.34,5.28,5.28,0,0,1,0-2.9,11.8,11.8,0,0,1,.88-2.49,13,13,0,0,1,5.34-5.75A8.93,8.93,0,0,1,451.26,219.06Z" style="fill:#fafafa"></path><path d="M419.71,233.45a.94.94,0,0,1-.25,0l-.71-.17a22,22,0,0,0-2.77-.47,21.15,21.15,0,0,0-10.11,1.41,19.31,19.31,0,0,0-3,1.54,8.62,8.62,0,0,0-2.64,2.47,4,4,0,0,0-.51,3.62,3.23,3.23,0,0,0,1.12,1.55,2.34,2.34,0,0,0,1.85.4,3.5,3.5,0,0,0,2.57-2.95,6.49,6.49,0,0,0-1.15-4.22,12.8,12.8,0,0,0-7.62-5.41,12.51,12.51,0,0,0-9.24,1.39,11.44,11.44,0,0,0-3.4,2.95,5.75,5.75,0,0,0-.88,2,2.82,2.82,0,0,0,.16,2,2,2,0,0,0,1.53,1,2.8,2.8,0,0,0,1.81-.53,3.47,3.47,0,0,0,1.35-3.31,8.47,8.47,0,0,0-1.16-3.42,12.05,12.05,0,0,0-2.09-2.65,13.57,13.57,0,0,0-5-3,12.77,12.77,0,0,0-4.36-.68,14.81,14.81,0,0,0-3.72.6s.07,0,.23-.1l.69-.25a11.58,11.58,0,0,1,2.8-.45,12.58,12.58,0,0,1,4.45.6,13.75,13.75,0,0,1,5.13,3A12.67,12.67,0,0,1,387,233a8.82,8.82,0,0,1,1.24,3.58,4.73,4.73,0,0,1-.22,2,3.44,3.44,0,0,1-1.29,1.7,3.35,3.35,0,0,1-2.12.62,2.42,2.42,0,0,1-1.91-1.26,3.25,3.25,0,0,1-.22-2.31,6.19,6.19,0,0,1,.95-2.13,11.71,11.71,0,0,1,3.56-3.11,12.93,12.93,0,0,1,9.61-1.45,13.24,13.24,0,0,1,7.93,5.64,7,7,0,0,1,1.22,4.56,4,4,0,0,1-3,3.35,2.81,2.81,0,0,1-2.22-.49,3.64,3.64,0,0,1-1.28-1.78,4.36,4.36,0,0,1-.19-2.11,5,5,0,0,1,.77-1.9,8.94,8.94,0,0,1,2.79-2.57,19.51,19.51,0,0,1,3.11-1.54A20.75,20.75,0,0,1,416,232.56,14.37,14.37,0,0,1,419.71,233.45Z" style="fill:#fafafa"></path><path d="M308,150.1c2.07.1,1.48,11.41,3,9s-.88-13.87,1.28-13.67c2.82.27,2,12.09,2,13.1s1.45,1,1.4.09c-.07-1.3-.51-15,2.26-14.77,1.54.13,1,2.88,1,2.88s-.54,12.87.77,12.93,1.91-7.48,1.92-10,1.22-3.57,2.33-2.67c.76.62.91,8.44.84,11s-.39,9.46,2.54,6.1,6.43-4.87,7.64-4.63,1.28,2,0,2.6a16.86,16.86,0,0,0-3.53,2.79,16.12,16.12,0,0,0-2.16,2.89,12.3,12.3,0,0,0-1.55,3.58l3.94,47.15,2.89-3.61,16.47,15.93-8.6,9.89c-6.29,7.25-17.69,7.71-24.09.56-.23-.26-.46-.53-.67-.81a13.38,13.38,0,0,1-2.67-7.15l-5.44-61.12h-.05c-.12-6.79-2-12-2.29-15.46C306.65,150.13,307.23,150.06,308,150.1Z" style="fill:#ffbe9d"></path><path d="M384.16,175.29c.06-7.11,0-14.59,0-14.59s-9.14-1.63-10.89-13.6c-1.68-11.42,1.16-36,1.16-36h0c13.25-5.22,28.16-3.2,37.43,7.45h0l-1.44,57.74c-.17,6.7-6.06,11.89-13.24,11.66h0C389.93,187.74,384.1,182.06,384.16,175.29Z" style="fill:#ffbe9d"></path><path d="M376.91,130a1.54,1.54,0,0,0,1.46,1.57,1.48,1.48,0,0,0,1.6-1.37,1.53,1.53,0,0,0-1.46-1.56A1.46,1.46,0,0,0,376.91,130Z" style="fill:#263238"></path><path d="M374.45,128.24c.18.2,1.36-.65,3-.62s2.85.86,3,.66-.1-.45-.62-.84a4.18,4.18,0,0,0-2.42-.78,4,4,0,0,0-2.4.75C374.53,127.79,374.35,128.15,374.45,128.24Z" style="fill:#263238"></path><path d="M393.79,130.47a1.52,1.52,0,0,0,1.46,1.56,1.45,1.45,0,0,0,1.59-1.36,1.53,1.53,0,0,0-1.45-1.57A1.47,1.47,0,0,0,393.79,130.47Z" style="fill:#263238"></path><path d="M391.65,129c.18.2,1.36-.65,3-.62s2.85.86,3,.66-.1-.45-.62-.84a4.21,4.21,0,0,0-2.42-.78,4,4,0,0,0-2.4.74C391.73,128.59,391.55,129,391.65,129Z" style="fill:#263238"></path><path d="M385.52,141.2a10.22,10.22,0,0,0-2.67-.52c-.42-.05-.82-.13-.89-.42a2.21,2.21,0,0,1,.3-1.25c.4-1,.83-2.08,1.28-3.19,1.78-4.54,3.08-8.28,2.89-8.35s-1.77,3.55-3.56,8.1l-1.23,3.21a2.46,2.46,0,0,0-.23,1.65,1,1,0,0,0,.68.62,2.51,2.51,0,0,0,.71.11A11.12,11.12,0,0,0,385.52,141.2Z" style="fill:#263238"></path><path d="M384.15,160.7a30.41,30.41,0,0,0,16.06-4.09s-4,8.17-15.93,6.91Z" style="fill:#eb996e"></path><path d="M386.17,145.18a3,3,0,0,1,2.68-1.07,2.69,2.69,0,0,1,1.86,1,1.72,1.72,0,0,1,.11,2,2,2,0,0,1-2.17.52,6.11,6.11,0,0,1-2.09-1.28,2,2,0,0,1-.47-.49.56.56,0,0,1,0-.62" style="fill:#eb996e"></path><path d="M390.36,142.39c-.27,0-.29,1.77-1.84,3s-3.45,1-3.47,1.28.42.35,1.23.38a4.4,4.4,0,0,0,2.89-1,3.84,3.84,0,0,0,1.43-2.53C390.68,142.83,390.48,142.38,390.36,142.39Z" style="fill:#263238"></path><path d="M406.66,110.06c-4.37,6.23-15.94,12.64-24.23,14.13,1-1.27,6.06-4.41,7-5.68-3.75,2.8-9.13,6.55-14.11,6.81a3,3,0,0,1-1.72-.27,2.31,2.31,0,0,1-.87-1.88,49.56,49.56,0,0,1,.35-10.82,11.94,11.94,0,0,1,4.31-7.73c3.19-2.47,7.76-3.08,12.07-3.18a27.29,27.29,0,0,1,10.63,1.43c3.31,1.3,6.13,3.88,6.61,7" style="fill:#263238"></path><path d="M419.2,138a67.59,67.59,0,0,0,1.19-8c.35-6.16-1.43-28.92-22.69-27.09l5.12,6.53s-4.2,13.79,4.74,23.31c0,0,.51,5.57,6.74,12,0,0,3.61-.11,4.9-6.75" style="fill:#263238"></path><path d="M407.31,131.71a7.2,7.2,0,0,1,3.85.29,5,5,0,0,1,2.78,2.59,5.2,5.2,0,0,1,0,3.82,8.9,8.9,0,0,1-2.21,3.19,6,6,0,0,1-2.34,1.51,2.86,2.86,0,0,1-2.66-.44" style="fill:#ffbe9d"></path><path d="M407.93,139.47c-.15,0,.4.82,1.57.52a2.53,2.53,0,0,0,1.46-1.24,5.67,5.67,0,0,0,.66-2.12,3.35,3.35,0,0,0-.51-2.25,2.25,2.25,0,0,0-1.67-1c-1.2,0-1.59.79-1.45.81s.57-.32,1.35-.13a2.16,2.16,0,0,1,1.3,2.49c-.15,1.31-.67,2.51-1.38,2.8S408,139.36,407.93,139.47Z" style="fill:#eb996e"></path><polygon points="422.3 253.96 422.3 248.5 383.87 248.5 372.59 199.1 315.08 199.57 329.02 253.96 422.3 253.96" style="fill:#263238"></polygon><path d="M342.33,226.56c.85,2.62,3.16,4.21,5.17,3.56s2.94-3.3,2.08-5.91-3.16-4.21-5.16-3.56S341.48,224,342.33,226.56Z" style="fill:#fafafa"></path><path d="M370,253.63a35.68,35.68,0,0,1-2.41-5.75,3.54,3.54,0,0,1-.22-1.47,1.25,1.25,0,0,1,.88-1.08c.9-.18,1.46.91,1.81,1.75a10.87,10.87,0,0,0,7.53,6.33l2.33-.06v-.1l50.27-4.48-2.4-10,26.61-2,2.43,9.82A20.24,20.24,0,0,1,435.92,269H378.24c-18.35,1.2-21.8-15-21.8-15Z" style="fill:#ffbe9d"></path></g><g id="freepik--character-2--inject-13"><path d="M303.12,414.79l-22.72,14,8.34,20.05a73.06,73.06,0,0,0,17.84-25.75Z" style="fill:#b78876"></path><path d="M309.29,415.25c-2.94-7-13-30.24-21.45-38.92-12.63-13-34.86-11.24-34.86-11.24l-28.88,1a67.61,67.61,0,0,0-21.27,6.58l-.71.22v.14c-8.08,4.39-19.52,14.92-30.43,25.14l13.05,12.1,14.44,12.82a.36.36,0,0,0,0,.26c.15.78-2.35,16.29-4.56,29.69a72.82,72.82,0,0,0,76.69,7.8l1.08-12.39c1-11.23,1.74-25.13,1.74-25.13l4.14,10.51,30.13-15.66C308.71,417.22,309,416.24,309.29,415.25Z" style="fill:#B0BEC5"></path><path d="M253.78,364a2.18,2.18,0,0,1,.13.52,10.82,10.82,0,0,1,.19,1.51,15.09,15.09,0,0,1-.75,5.55,15.79,15.79,0,0,1-4.56,6.91,15.84,15.84,0,0,1-19.13.9,15.8,15.8,0,0,1-5.21-6.45,14.94,14.94,0,0,1-1.26-5.45,9.6,9.6,0,0,1,0-1.52,1.74,1.74,0,0,1,.08-.53c.06,0,0,.73.08,2a16,16,0,0,0,1.4,5.31,15.79,15.79,0,0,0,5.14,6.21,15.51,15.51,0,0,0,18.54-.88A15.72,15.72,0,0,0,253.89,366C253.87,364.72,253.72,364,253.78,364Z" style="fill:#263238"></path><path d="M281.28,370.26a13,13,0,0,0-2,.48,9.92,9.92,0,0,0-4.47,3.39,15.88,15.88,0,0,0-2.84,7.86c-.2,1.59-.29,3.28-.35,5s-.1,3.56-.12,5.42a185.51,185.51,0,0,0,.85,19c.23,2.42.47,4.38.62,5.74.08.63.13,1.14.18,1.56a1.92,1.92,0,0,1,0,.55,2.21,2.21,0,0,1-.13-.54c-.08-.41-.17-.92-.28-1.55-.21-1.34-.51-3.3-.78-5.73a156.63,156.63,0,0,1-1-19.05c0-1.86.05-3.68.13-5.44s.16-3.46.38-5.07a16,16,0,0,1,3-8,9.76,9.76,0,0,1,4.7-3.36A5.45,5.45,0,0,1,281.28,370.26Z" style="fill:#263238"></path><path d="M212.55,368.38a2.47,2.47,0,0,1-.12.56l-.45,1.58-1.7,5.8c-1.41,4.9-3.28,11.69-5.11,19.25S201.91,410,200.94,415c-.48,2.45-.86,4.45-1.14,5.93-.13.65-.24,1.18-.33,1.61a1.92,1.92,0,0,1-.14.55,2.45,2.45,0,0,1,0-.57c.06-.43.13-1,.23-1.63.2-1.41.53-3.45,1-6,.89-5,2.27-12,4.09-19.52s3.76-14.36,5.27-19.23c.75-2.44,1.39-4.41,1.85-5.76.22-.63.4-1.14.55-1.55A2.61,2.61,0,0,1,212.55,368.38Z" style="fill:#263238"></path><path d="M308.72,410.42a8,8,0,0,1-1.18.88c-.77.54-1.91,1.3-3.33,2.21-2.84,1.84-6.81,4.29-11.28,6.85s-8.6,4.75-11.61,6.27c-1.51.76-2.74,1.36-3.59,1.76a9,9,0,0,1-1.36.57,8.74,8.74,0,0,1,1.26-.75l3.52-1.91c3-1.6,7.06-3.83,11.52-6.39s8.46-5,11.34-6.71l3.42-2.07A7.47,7.47,0,0,1,308.72,410.42Z" style="fill:#263238"></path><path d="M200.69,414.81c-.1.11-5.77-4.36-12.68-10s-12.45-10.29-12.36-10.4,5.77,4.36,12.68,10S200.78,414.7,200.69,414.81Z" style="fill:#263238"></path><path d="M271.17,394.49l11.3,37.18-4.21,2.19-4.14-10.51S269.85,401.25,271.17,394.49Z" style="opacity:0.2"></path><g style="opacity:0.2"><path d="M213.77,368.4c-6.09,3.22,9.18,11,16.08,10.74l-5-13.22S215.82,367.33,213.77,368.4Z"></path></g><polygon points="252.66 422.33 216.48 422.46 218.86 409.15 255.34 408.44 252.66 422.33" style="fill:#fff;opacity:0.2"></polygon><path d="M249.2,321.09a2.73,2.73,0,0,0,.89,2.81,2.75,2.75,0,0,0,2.94.28c1.74-.93,1.92-3.37,1.53-5.31s-1.08-4-.3-5.81c.6-1.39,1.93-2.29,3-3.4a8.49,8.49,0,0,0,2.23-7.28,7.17,7.17,0,0,0-5-5.55c-2.6-.67-5.78.19-7.74-1.65-1.43-1.33-1.56-3.56-2.67-5.16-1.73-2.48-5.29-2.81-8.28-2.35s-6,1.49-9,.82c-2.47-.56-4.51-2.24-6.83-3.24A13.25,13.25,0,0,0,203,303.77a8.5,8.5,0,0,0,4.19,4" style="fill:#263238"></path><path d="M238.71,381.84h0a14.82,14.82,0,0,1-14.9-14c-.33-6.56-.6-12.87-.6-12.87s-12.17-.88-13.29-12.77-1.28-39.4-1.28-39.4h0A42.2,42.2,0,0,1,251,304.62l1.16.74,1.41,61.55A14.84,14.84,0,0,1,238.71,381.84Z" style="fill:#b78876"></path><path d="M231.73,321.08a1.73,1.73,0,0,0-1.12,2.19,1.76,1.76,0,0,0,2.22,1.1,1.73,1.73,0,1,0-1.1-3.29Z" style="fill:#263238"></path><path d="M228.39,321.69c.2.2,1.33-.77,3-.88s2.91.67,3.08.45-.13-.46-.68-.82a4.11,4.11,0,0,0-4.84.34C228.45,321.22,228.3,321.61,228.39,321.69Z" style="fill:#263238"></path><path d="M213.57,321.08a1.72,1.72,0,0,0-1.11,2.19,1.75,1.75,0,1,0,1.11-2.19Z" style="fill:#263238"></path><path d="M210,321.73c.2.2,1.33-.78,3-.88s2.91.67,3.08.45-.13-.46-.68-.83a4.13,4.13,0,0,0-4.84.35C210.07,321.26,209.92,321.64,210,321.73Z" style="fill:#263238"></path><path d="M222.51,334.59a8.08,8.08,0,0,0-2.72-.34c-.44,0-.79-.09-.84-.31a2.31,2.31,0,0,1,.21-1.26l1-3.43c1.42-4.9,2.36-8.92,2.11-9s-1.6,3.83-3,8.73l-1,3.45a2.68,2.68,0,0,0-.09,1.81,1.12,1.12,0,0,0,.8.62,3.28,3.28,0,0,0,.74,0A8.16,8.16,0,0,0,222.51,334.59Z" style="fill:#263238"></path><path d="M228,336a40.61,40.61,0,0,1-7.92,3,4.61,4.61,0,0,0,5.54,1.37C229.14,338.73,228,336,228,336Z" style="fill:#fff"></path><path d="M223.17,354.78a28.2,28.2,0,0,0,15.3-5.67s-3,8.87-15.07,8.76Z" style="fill:#a36957"></path><path d="M252.47,317.39a1.81,1.81,0,0,1,1.7-1.84c2.24-.1,5.93.71,6.4,6.84.66,8.76-7.89,6.74-7.93,6.49S252.51,320.8,252.47,317.39Z" style="fill:#b78876"></path><path d="M254.53,325.39s.16.1.43.2a1.61,1.61,0,0,0,1.15-.06c.91-.41,1.58-1.94,1.5-3.52a5,5,0,0,0-.59-2.16,1.78,1.78,0,0,0-1.25-1.08.77.77,0,0,0-.87.49c-.1.25,0,.42-.08.44s-.2-.13-.16-.5a1,1,0,0,1,.31-.58,1.19,1.19,0,0,1,.83-.28,2.14,2.14,0,0,1,1.71,1.23,5.09,5.09,0,0,1,.72,2.41c.08,1.77-.71,3.49-2,3.95a1.66,1.66,0,0,1-1.42-.13C254.56,325.6,254.5,325.41,254.53,325.39Z" style="fill:#a36957"></path><path d="M234.29,316.81c-.37.48-1.68.26-3.37.19s-3-.08-3.33-.6,1.29-1.79,3.47-1.62S234.71,316.31,234.29,316.81Z" style="fill:#263238"></path><path d="M215.18,316.51c-.13.6-1.22.89-2.46,1s-2.38,0-2.61-.57.81-1.5,2.41-1.64S215.31,315.92,215.18,316.51Z" style="fill:#263238"></path><path d="M207,306.55s7.22,3.49,16.61-1.2c6.17-3.07,13.35-4.58,14.93-3.34s1.92,7.59,8,9.45c0,0-.42,12.11,4.41,11.68s1.81-19.2,1.81-19.2l-11.82-5.77L228,295.73l-12.16,1.72-9.4,2.57Z" style="fill:#263238"></path><path d="M163.78,327.29c.43.69,14.33,48.85,14.33,48.85l-27.58,3.77L137.84,340.6Z" style="fill:#455a64"></path><polygon points="178.11 376.14 180.59 374.83 166.15 326.03 163.48 327.44 178.11 376.14" style="fill:#263238"></polygon><path d="M152.22,340.08a1.17,1.17,0,1,1-1.38-.9A1.17,1.17,0,0,1,152.22,340.08Z" style="fill:#263238"></path><path d="M172.91,398.13l-18.1,11.79-3.33-42.17h0l.28-2.11L164,361l-3.52-9a7.77,7.77,0,0,0-10.73-4l-3.93,2a11.1,11.1,0,0,0-5.67,7c-1.39,5.22-2.63,10.87-2.5,10.38h0l-7.76,54.28s-3.68,15.65,7,23.1c8.09,5.62,21.71-.35,28.94-4.44l31.34-18.88Z" style="fill:#b78876"></path></g><g id="freepik--character-1--inject-13"><path d="M191.39,176.76l-12.27-18.67-20.7,13L177.18,200S187.5,188.82,191.39,176.76Z" style="fill:#eb996e"></path><path d="M114.49,83.36c1-1.11-.36-2.85-1.78-3.37s-3.17-.75-3.85-2.09c-.82-1.63.63-3.46.89-5.27s-.84-3.77-1.17-5.7a7.19,7.19,0,0,1,9.45-8,9.36,9.36,0,0,1,16.6-5.55,26.41,26.41,0,0,1,5.93-3.73,8.9,8.9,0,0,1,6.83-.2,5.45,5.45,0,0,1,3.32,5.61,5.93,5.93,0,0,1,6.91-1.22,8.87,8.87,0,0,1,4.49,5.78c.92,3.4.12,7.4-2.59,9.64s-7.34,2-9.35-.85" style="fill:#263238"></path><path d="M127.77,140.84h0a13.88,13.88,0,0,0,13.93-13.13c.31-6.13.57-12,.57-12s11.38-.83,12.43-12,1.19-36.87,1.19-36.87h0a39.48,39.48,0,0,0-39.65,1.73l-1.08.69-1.31,57.59A13.88,13.88,0,0,0,127.77,140.84Z" style="fill:#ffbe9d"></path><path d="M134.3,84a1.62,1.62,0,0,1,1,2,1.65,1.65,0,0,1-2.07,1,1.61,1.61,0,0,1-1-2A1.64,1.64,0,0,1,134.3,84Z" style="fill:#263238"></path><path d="M137.42,84.56c-.19.18-1.25-.73-2.79-.82s-2.73.62-2.89.42.12-.43.63-.78a3.82,3.82,0,0,1,2.32-.57,3.77,3.77,0,0,1,2.21.9C137.36,84.12,137.51,84.48,137.42,84.56Z" style="fill:#263238"></path><path d="M151.29,84a1.63,1.63,0,0,1,1,2,1.65,1.65,0,0,1-2.07,1,1.61,1.61,0,0,1-1-2A1.64,1.64,0,0,1,151.29,84Z" style="fill:#263238"></path><path d="M154.61,84.6c-.18.18-1.24-.73-2.79-.83s-2.72.63-2.88.42.12-.43.63-.77a3.85,3.85,0,0,1,4.53.32C154.56,84.15,154.7,84.51,154.61,84.6Z" style="fill:#263238"></path><path d="M142.92,96.63a7.57,7.57,0,0,1,2.55-.33c.41,0,.73-.07.78-.29a2.19,2.19,0,0,0-.2-1.17c-.31-1-.63-2.1-1-3.21-1.32-4.58-2.21-8.35-2-8.41s1.5,3.59,2.83,8.16c.31,1.12.61,2.19.91,3.24a2.56,2.56,0,0,1,.08,1.68,1.06,1.06,0,0,1-.75.59,2.44,2.44,0,0,1-.7,0A7.74,7.74,0,0,1,142.92,96.63Z" style="fill:#263238"></path><path d="M137.75,97.92a38.63,38.63,0,0,0,7.42,2.79A4.31,4.31,0,0,1,140,102C136.72,100.5,137.75,97.92,137.75,97.92Z" style="fill:#fff"></path><path d="M142.3,115.52A26.4,26.4,0,0,1,128,110.21s2.81,8.3,14.11,8.2Z" style="fill:#eb996e"></path><path d="M114.89,85.63a1.69,1.69,0,0,0-1.59-1.72c-2.1-.1-5.55.66-6,6.39-.62,8.2,7.39,6.31,7.42,6.07S114.85,88.81,114.89,85.63Z" style="fill:#ffbe9d"></path><path d="M113,93.11s-.15.09-.41.19a1.5,1.5,0,0,1-1.07-.06c-.85-.39-1.49-1.82-1.41-3.3a4.65,4.65,0,0,1,.55-2,1.65,1.65,0,0,1,1.17-1,.72.72,0,0,1,.82.45c.09.24,0,.4.07.41s.19-.12.15-.46a.86.86,0,0,0-.29-.54,1.06,1.06,0,0,0-.78-.27,2,2,0,0,0-1.6,1.16,4.79,4.79,0,0,0-.67,2.25c-.07,1.65.66,3.26,1.83,3.69a1.54,1.54,0,0,0,1.34-.12C112.94,93.31,113,93.13,113,93.11Z" style="fill:#eb996e"></path><path d="M131.9,80c.35.45,1.57.24,3.15.18s2.83-.07,3.11-.56-1.2-1.68-3.24-1.51S131.5,79.53,131.9,80Z" style="fill:#263238"></path><path d="M149.78,79.71c.12.57,1.14.84,2.3,1s2.22,0,2.44-.54-.76-1.4-2.25-1.53S149.66,79.16,149.78,79.71Z" style="fill:#263238"></path><path d="M157.48,70.39s-6.76,3.27-15.54-1.12c-5.77-2.88-12.49-4.28-14-3.12s-1.8,7.1-7.51,8.83c0,0,.39,11.34-4.13,10.93s-1.69-18-1.69-18l11-5.4,12.07-2.28,11.37,1.6,8.8,2.41Z" style="fill:#263238"></path><path d="M81.8,136c11.82-12.15,32.61-10.83,32.61-10.83l27,1a63.45,63.45,0,0,1,19.9,6.16l.66.21v.13c7.57,4.11,18.28,14,28.48,23.52l-12.21,11.32-13.51,12a.35.35,0,0,1,0,.24c-.14.72,2.2,15.24,4.26,27.77a68.17,68.17,0,0,1-71.75,7.31l-1-11.59c-.92-10.51-1.62-23.52-1.62-23.52" style="fill:#B0BEC5"></path><path d="M152.24,128.24a2.15,2.15,0,0,1,.21.5c.14.38.31.86.51,1.45.44,1.26,1,3.1,1.74,5.38,1.41,4.56,3.22,10.91,4.93,18s3,13.56,3.83,18.27c.41,2.35.72,4.25.91,5.58.08.61.15,1.11.2,1.52a2.19,2.19,0,0,1,0,.54,1.88,1.88,0,0,1-.14-.52l-.3-1.51c-.27-1.38-.63-3.26-1.08-5.55-.91-4.68-2.26-11.13-4-18.21s-3.46-13.42-4.78-18c-.65-2.23-1.19-4.07-1.58-5.42l-.42-1.48A1.86,1.86,0,0,1,152.24,128.24Z" style="fill:#263238"></path><path d="M163.34,171.68c-.09-.11,5.08-4.47,11.54-9.74s11.79-9.45,11.88-9.34-5.08,4.47-11.55,9.74S163.43,171.79,163.34,171.68Z" style="fill:#263238"></path><path d="M97.4,152.67,86.82,187.46l3.94,2,3.88-9.84S98.62,159,97.4,152.67Z" style="opacity:0.2"></path><g style="opacity:0.2"><path d="M151.09,128.26c5.7,3-8.58,10.24-15,10.05l4.69-12.37S149.18,127.25,151.09,128.26Z"></path></g><path d="M112.71,125.94v-9.21s18,4.63,18.65,15.4c0,0,2.29-11.9,11.56-12.48l1.31,16.74-10.79,9.39H122.51l-8.66-7.47-1.14-11.62" style="fill:#B0BEC5"></path><path d="M135.41,183.77a1.71,1.71,0,0,1,0-.51c0-.4,0-.88,0-1.47,0-1.27.06-3.12.07-5.39,0-4.55-.11-10.84-.68-17.76s-1.48-13.14-2.26-17.63c-.38-2.24-.71-4-1-5.3-.1-.58-.19-1.06-.26-1.44a1.85,1.85,0,0,1-.05-.52,2.53,2.53,0,0,1,.15.49c.1.39.22.86.36,1.43.3,1.23.69,3,1.13,5.28a168.57,168.57,0,0,1,2.41,17.65,169.25,169.25,0,0,1,.53,17.8c-.06,2.28-.14,4.13-.24,5.4,0,.58-.08,1.07-.11,1.46A1.59,1.59,0,0,1,135.41,183.77Z" style="fill:#263238"></path><path d="M130.53,129a2,2,0,0,0-1.07.08,2.22,2.22,0,0,0-1,.77,7.72,7.72,0,0,0-.84,1.53,51.41,51.41,0,0,0-3.44,10l-.08.34-.3-.18c-1.08-.65-2.18-1.35-3.29-2.11a66.61,66.61,0,0,1-5.83-4.42,7.36,7.36,0,0,1-2-2.58,8.36,8.36,0,0,1-.61-2.77,16.54,16.54,0,0,1,.38-4,6.49,6.49,0,0,1,.38-1.43,8.46,8.46,0,0,1-.18,1.46,19.33,19.33,0,0,0-.21,4,8.07,8.07,0,0,0,.63,2.61,7,7,0,0,0,1.91,2.4,70,70,0,0,0,5.8,4.35c1.1.75,2.2,1.45,3.26,2.1l-.38.16a46.16,46.16,0,0,1,3.64-10,7.58,7.58,0,0,1,.94-1.55,2.44,2.44,0,0,1,1.13-.78C130.16,128.72,130.56,129,130.53,129Z" style="fill:#263238"></path><path d="M142.92,119.65a7.19,7.19,0,0,1,.15,1.44c.07,1,.16,2.35.27,3.93s.33,3.61.66,5.78a9.59,9.59,0,0,1,.22,3.51,6.06,6.06,0,0,1-2.35,3,26.07,26.07,0,0,0-4,3l-.39.45,0-.6a21.46,21.46,0,0,0-2.69-9c-1.15-2.05-2.1-3.1-2-3.15a3.78,3.78,0,0,1,.7.72,17.51,17.51,0,0,1,1.62,2.27,20.72,20.72,0,0,1,2.91,9.11l-.44-.15a25.07,25.07,0,0,1,4-3.1,5.56,5.56,0,0,0,2.17-2.7,9.55,9.55,0,0,0-.19-3.32c-.31-2.19-.47-4.17-.56-5.83s-.1-3-.1-3.94A8.83,8.83,0,0,1,142.92,119.65Z" style="fill:#263238"></path><path d="M200.84,122c-.73.86-27.22,36.28-27.22,36.28l3.73,2.11,27.18-35Z" style="fill:#263238"></path><path d="M94.42,150s27.87,40.12,29.55,40.91c3.3,1.55,41.43-31.4,45.07-34.55.5-.67,1.53-2.08,3.56-4.89,0,0,3-13.77,6.22-12.71s-1.76,7,.33,12.22,11.67-7.24,12-8.36l2.47-3.23s2.59,7.35,2.41,10.41c-.56,9.82-9.85,21.5-9.85,21.5S144.5,223,115.92,224.56c-8.23.46-22.86-22.89-32.64-40.41a24,24,0,0,1,6.83-31Z" style="fill:#ffbe9d"></path><path d="M191.39,151.52c-.07-.05.83-1.62,1.82-3.62s1.69-3.67,1.77-3.64a16.64,16.64,0,0,1-1.49,3.78A17.45,17.45,0,0,1,191.39,151.52Z" style="fill:#eb996e"></path><path d="M89.7,130.39S59.79,141,82,191.33l34.53-20.84-4.91-11.76Z" style="fill:#B0BEC5"></path><path d="M87.41,131.26l.24,0h.69a11.9,11.9,0,0,1,2.67.35,14.4,14.4,0,0,1,3.91,1.66,21.54,21.54,0,0,1,4.34,3.57A52.35,52.35,0,0,1,107.37,149c2.53,4.89,4.89,10.46,7.31,16.31l2.12,5.12.09.22-.21.11c-10,5.45-18.69,10.55-24.83,14.38-3.07,1.91-5.52,3.48-7.2,4.57l-1.93,1.25a4.89,4.89,0,0,1-.69.41,5.93,5.93,0,0,1,.63-.49c.43-.3,1.06-.76,1.88-1.33,1.65-1.14,4.07-2.76,7.13-4.71,6.1-3.9,14.77-9.07,24.77-14.54l-.12.33-2.12-5.12c-2.42-5.85-4.76-11.41-7.25-16.29a53.5,53.5,0,0,0-8-12.1,21.24,21.24,0,0,0-4.24-3.58A14.56,14.56,0,0,0,91,131.78,20.68,20.68,0,0,0,87.41,131.26Z" style="fill:#263238"></path></g><g id="freepik--Icon--inject-13"><path d="M255.23,268.43a6.27,6.27,0,1,1-6.24-6.29A6.27,6.27,0,0,1,255.23,268.43Z" style="fill:#263238"></path><path d="M236.44,260.38a17.35,17.35,0,0,1,25.12-.33c3.2,3.22,8.21-1.74,5-5a24.49,24.49,0,0,0-35.09.28c-3.13,3.29,1.82,8.3,5,5Z" style="fill:#263238"></path><path d="M215.16,231.21c9.52-8.24,20.9-13.42,33.64-13.45a49.94,49.94,0,0,1,34.32,13.13c3.3,3.1,8.32-1.85,5-5a57.22,57.22,0,0,0-39.3-15.22c-14.66,0-27.68,6-38.63,15.49-3.44,3,1.54,8,5,5Z" style="fill:#263238"></path><path d="M223.56,247.38a34.47,34.47,0,0,1,50.66-.73c3.17,3.26,8.17-1.7,5-5a41.51,41.51,0,0,0-60.63.68c-3.07,3.32,1.88,8.34,5,5Z" style="fill:#263238"></path><path d="M255.36,264a6.27,6.27,0,1,1-6.24-6.29A6.28,6.28,0,0,1,255.36,264Z" style="fill:#455a64"></path><path d="M236.57,255.9a17.36,17.36,0,0,1,25.12-.34c3.2,3.23,8.21-1.73,5-5a24.49,24.49,0,0,0-35.09.29c-3.13,3.28,1.82,8.3,5,5Z" style="fill:#455a64"></path><path d="M215.28,226.73c9.53-8.24,20.91-13.42,33.65-13.45a49.9,49.9,0,0,1,34.32,13.13c3.3,3.1,8.32-1.85,5-5A57.17,57.17,0,0,0,249,206.23c-14.66,0-27.69,6-38.64,15.49-3.43,3,1.54,8,5,5Z" style="fill:#455a64"></path><path d="M223.68,242.89a34.48,34.48,0,0,1,50.66-.72c3.17,3.26,8.18-1.71,5-5a41.51,41.51,0,0,0-60.63.68c-3.07,3.32,1.88,8.34,5,5Z" style="fill:#455a64"></path></g></svg>